HIERARCHY
ROOT Hips
{
    OFFSET 0.000000 0.000000 0.000000
    CHANNELS 6 Xposition Yposition Zposition Zrotation Xrotation Yrotation
    JOINT Chest
    {
        OFFSET -0.000000 0.078598 0.000000
        CHANNELS 3 Zrotation Xrotation Yrotation
        JOINT Chest2
        {
            OFFSET -0.000000 0.230468 0.000000
            CHANNELS 3 Zrotation Xrotation Yrotation
            JOINT Neck
            {
                OFFSET -0.000000 0.249638 0.000000
                CHANNELS 3 Zrotation Xrotation Yrotation
                JOINT Head
                {
                    OFFSET -0.000000 0.103998 0.019170
                    CHANNELS 3 Zrotation Xrotation Yrotation
                    End Site
                    {
                        OFFSET -0.000000 0.191701 0.000000
                    }
                }
            }
            JOINT LeftCollar
            {
                OFFSET 0.038274 0.205938 -0.001496
                CHANNELS 3 Zrotation Xrotation Yrotation
                JOINT LeftShoulder
                {
                    OFFSET 0.132388 0.000000 0.000000
                    CHANNELS 3 Zrotation Xrotation Yrotation
                    JOINT LeftElbow
                    {
                        OFFSET 0.250301 0.000000 0.000000
                        CHANNELS 3 Zrotation Xrotation Yrotation
                        JOINT LeftWrist
                        {
                            OFFSET 0.285291 0.000000 0.000000
                            CHANNELS 3 Zrotation Xrotation Yrotation
                            End Site
                            {
                                OFFSET 0.000000 -0.143776 0.000000
                            }
                        }
                    }
                }
            }
            JOINT RightCollar
            {
                OFFSET -0.038406 0.205938 -0.001496
                CHANNELS 3 Zrotation Xrotation Yrotation
                JOINT RightShoulder
                {
                    OFFSET -0.132388 0.000000 0.000000
                    CHANNELS 3 Zrotation Xrotation Yrotation
                    JOINT RightElbow
                    {
                        OFFSET -0.250301 0.000000 0.000000
                        CHANNELS 3 Zrotation Xrotation Yrotation
                        JOINT RightWrist
                        {
                            OFFSET -0.285291 0.000000 0.000000
                            CHANNELS 3 Zrotation Xrotation Yrotation
                            End Site
                            {
                                OFFSET -0.000000 -0.143776 0.000000
                            }
                        }
                    }
                }
            }
        }
    }
    JOINT LeftHip
    {
        OFFSET 0.095851 0.000000 0.000000
        CHANNELS 3 Zrotation Xrotation Yrotation
        JOINT LeftKnee
        {
            OFFSET -0.000000 -0.406444 0.000000
            CHANNELS 3 Zrotation Xrotation Yrotation
            JOINT LeftAnkle
            {
                OFFSET -0.000000 -0.408443 0.000000
                CHANNELS 3 Zrotation Xrotation Yrotation
                JOINT LeftToe
                {
                    OFFSET -0.000000 -0.062303 0.143776
                    CHANNELS 3 Zrotation Xrotation Yrotation
                    End Site
                    {
                        OFFSET -0.000000 0.000000 0.038340
                    }
                }
            }
        }
    }
    JOINT RightHip
    {
        OFFSET -0.095851 0.000000 0.000000
        CHANNELS 3 Zrotation Xrotation Yrotation
        JOINT RightKnee
        {
            OFFSET -0.000000 -0.406444 0.000000
            CHANNELS 3 Zrotation Xrotation Yrotation
            JOINT RightAnkle
            {
                OFFSET -0.000000 -0.408443 0.000000
                CHANNELS 3 Zrotation Xrotation Yrotation
                JOINT RightToe
                {
                    OFFSET -0.000000 -0.062303 0.143776
                    CHANNELS 3 Zrotation Xrotation Yrotation
                    End Site
                    {
                        OFFSET -0.000000 0.000000 0.038340
                    }
                }
            }
        }
    }
}
MOTION
Frames:    9
Frame Time:    0.016667
-0.176470    0.847995    0.007639    2.877054    7.897689    -174.977386    -0.000014    10.140367    1.006496    -3.112001    5.341425    0.477889    4.032189    0.721339    -7.989860    -3.776899    -7.551277    -7.457718    10.189772    4.405022    -20.508844    -56.106598    51.752964    -16.561686    -13.072598    5.700152    -18.607021    102.501007    -19.496241    -1.399963    -5.861582    -21.403383    24.187241    40.575241    50.219524    47.722248    16.014942    -6.238355    105.155884    -56.387051    -5.924711    -24.765224    10.611531    -3.078110    3.171400    -10.610227    35.045921    7.609214    0.580446    -29.301632    10.100296    0.000000    0.000000    0.000000    -17.126011    -9.131627    4.536417    10.714944    37.063946    0.839413    8.048980    -17.347370    -10.639215    0.000000    0.000000    0.000000    
-0.176379    0.848463    0.005289    2.869768    7.855865    -174.098236    0.129358    10.059980    1.063930    -3.306404    5.469207    0.513848    4.255501    0.637978    -7.442247    -3.613526    -7.652689    -6.876599    10.258004    4.386681    -20.445282    -56.016247    51.956734    -16.765030    -12.740347    5.744582    -18.414127    101.913940    -19.783592    -1.592732    -5.703263    -21.427971    24.239464    40.756535    50.195244    47.487144    15.937445    -6.161893    105.173759    -56.462173    -5.903101    -24.617685    10.684495    -3.096230    3.186110    -10.271922    34.951954    6.775355    0.650413    -29.229099    10.003473    0.000000    0.000000    0.000000    -16.819271    -9.305424    4.144733    9.983116    34.992992    0.815167    8.050333    -17.389410    -10.234373    0.000000    0.000000    0.000000    
-0.175916    0.849013    0.002816    2.855227    7.816193    -173.300079    0.131912    9.996033    1.198781    -3.196290    5.557340    0.556105    4.179026    0.656052    -7.109986    -3.363838    -8.038004    -6.569837    10.154323    4.270319    -20.449364    -56.160892    51.904327    -16.545403    -12.672251    5.729464    -18.571489    102.046776    -19.639868    -1.563012    -5.839571    -21.209362    24.188618    40.430965    50.139492    47.881115    15.815018    -6.392428    105.184006    -56.388355    -5.898171    -24.675268    10.797684    -3.088546    3.072533    -10.098039    34.819633    6.216172    0.638907    -29.110641    9.861346    0.000000    0.000000    0.000000    -16.433622    -9.450479    4.254044    9.200617    32.453693    1.333402    7.937862    -17.010506    -10.085884    0.000000    0.000000    0.000000    
-0.175610    0.849608    0.000437    2.787563    7.721635    -172.572159    0.159568    10.032182    1.352529    -3.265198    5.378785    0.606534    4.487346    0.697760    -6.926334    -3.538429    -8.388535    -6.335994    10.207244    4.497358    -20.380674    -55.921253    51.485397    -16.874996    -12.902184    5.812783    -18.542437    102.259216    -19.696228    -1.568557    -5.777807    -21.170376    24.183449    40.504211    50.282902    47.748459    15.770256    -6.410215    105.203156    -56.363152    -5.988816    -24.613909    10.781314    -3.113214    2.974072    -9.837746    34.658127    5.805307    0.462668    -28.944342    9.607011    0.000000    0.000000    0.000000    -16.188835    -9.603762    4.943373    8.861940    29.562029    1.680307    8.245739    -16.398590    -10.167798    0.000000    0.000000    0.000000    
-0.174868    0.850039    -0.002544    2.757936    7.681899    -171.910233    0.250928    9.945584    1.520472    -3.296517    5.424569    0.667972    4.391960    0.615019    -6.804224    -3.296175    -8.618620    -6.246436    10.005651    4.301028    -20.488518    -56.123047    51.800903    -16.496195    -12.717899    5.621086    -18.579123    102.289162    -19.665701    -1.400641    -5.778038    -21.170712    24.197674    40.493477    50.198498    47.772915    15.947907    -6.151067    105.164139    -56.872269    -5.715644    -24.696636    10.943579    -3.041808    3.016690    -9.712833    34.550739    5.215663    0.713343    -28.680582    9.569477    0.000000    0.000000    0.000000    -15.903766    -9.616292    6.162719    8.733965    26.441113    1.785665    8.660568    -15.607680    -10.342803    0.000000    0.000000    0.000000    
-0.173887    0.850330    -0.005375    2.688325    7.669860    -171.126495    0.360031    9.910079    1.534126    -3.347721    5.489942    0.680036    4.302161    0.381732    -6.740094    -2.963574    -8.686281    -6.221061    10.020610    4.283074    -20.480288    -56.053604    52.029293    -16.577955    -12.500105    5.459457    -18.612356    101.860184    -19.674126    -1.345058    -5.887796    -21.229811    24.282589    40.575947    50.136135    47.701912    15.855994    -6.263584    105.183350    -56.364983    -5.948440    -24.592897    11.067902    -2.966954    2.804229    -9.658382    34.378540    4.744656    0.790858    -28.629105    9.512003    0.000000    0.000000    0.000000    -15.719894    -9.506283    7.521490    8.545456    23.304272    1.699689    9.523977    -14.634671    -10.174735    0.000000    0.000000    0.000000    
-0.172679    0.850305    -0.008788    2.606455    7.704193    -170.391876    0.461982    9.971811    1.609745    -3.478933    5.310741    0.709016    4.630987    0.414714    -6.858888    -3.178398    -8.947968    -6.293538    9.973941    4.485517    -20.494846    -55.749409    52.028713    -16.724684    -12.538001    5.195409    -18.671747    101.678017    -19.759686    -1.090258    -5.701188    -21.030945    24.268066    40.106010    50.203491    47.973400    15.752406    -6.472930    105.276146    -56.292957    -6.028132    -24.657572    11.231134    -2.743800    2.691655    -9.566947    34.139332    4.196431    0.621568    -28.763948    9.285197    0.000000    0.000000    0.000000    -15.518241    -9.324298    8.870011    8.154131    20.352825    1.904871    9.916635    -13.516358    -10.329786    0.000000    0.000000    0.000000    
-0.171250    0.850356    -0.012478    2.397984    7.688788    -169.641479    0.416970    9.816284    1.622415    -3.454788    5.453554    0.714979    4.481150    0.303100    -6.891972    -2.835424    -9.126060    -6.374592    10.091578    4.328064    -20.524031    -55.997391    51.953411    -16.515657    -12.588820    5.231680    -18.741047    101.515228    -19.881556    -1.126276    -5.770714    -21.122557    24.367308    39.855888    50.516666    48.173225    15.309013    -7.143122    105.399734    -55.853123    -6.225868    -24.670095    11.255013    -2.524296    2.546253    -9.423526    33.873798    3.712602    0.628469    -28.724020    9.107119    0.000000    0.000000    0.000000    -15.428647    -9.151499    10.120517    7.658792    17.791033    1.738655    10.891938    -12.621266    -10.040748    0.000000    0.000000    0.000000    
-0.169376    0.850167    -0.016513    2.173199    7.693435    -168.782333    0.393043    9.651596    1.528890    -3.482697    5.606605    0.689073    4.320232    -0.031956    -6.843984    -2.370775    -8.903190    -6.377786    10.027224    4.191958    -20.447489    -55.878838    51.997604    -16.483019    -12.730707    5.217082    -18.739187    101.481873    -19.908659    -1.091254    -5.708569    -21.204794    24.368837    40.000980    50.064339    48.027794    15.721994    -6.360537    105.335640    -57.015095    -5.606003    -24.705921    11.354465    -2.366690    2.312585    -9.373204    33.725666    3.258891    0.315996    -28.785208    8.768067    0.000000    0.000000    0.000000    -15.317952    -8.911633    11.260482    7.124175    15.607119    1.398586    11.731089    -11.778081    -10.060644    0.000000    0.000000    0.000000    
